<svg xmlns="http://www.w3.org/2000/svg" width="191.252" height="39.86" viewBox="0 0 191.252 39.86"><defs><style>.a{fill:#fff;}</style></defs><g transform="translate(-57 152.525)"><g transform="translate(14500 -4020.525)"><g transform="translate(-14388.69 3877.449)"><g transform="translate(0 0)"><path class="a" d="M313.878-482.89a10.842,10.842,0,0,1,.859-4.3,11,11,0,0,1,2.349-3.507,11.2,11.2,0,0,1,3.525-2.367,10.958,10.958,0,0,1,4.383-.877,10.872,10.872,0,0,1,4.348.877,11.206,11.206,0,0,1,3.525,2.367,11.257,11.257,0,0,1,2.367,3.507,10.663,10.663,0,0,1,.877,4.3,10.662,10.662,0,0,1-.877,4.3,11.244,11.244,0,0,1-2.367,3.507,11.191,11.191,0,0,1-3.525,2.367,10.865,10.865,0,0,1-4.348.877,10.951,10.951,0,0,1-4.383-.877,11.18,11.18,0,0,1-3.525-2.367,10.989,10.989,0,0,1-2.349-3.507A10.841,10.841,0,0,1,313.878-482.89Zm3.262.035a7.181,7.181,0,0,0,.631,2.981,8.031,8.031,0,0,0,1.7,2.455,8.369,8.369,0,0,0,2.49,1.683,7.389,7.389,0,0,0,3.033.631,7.433,7.433,0,0,0,3.016-.631,8.315,8.315,0,0,0,2.507-1.683,8.313,8.313,0,0,0,1.719-2.455,7.025,7.025,0,0,0,.649-2.981,7.173,7.173,0,0,0-.631-2.98,8.329,8.329,0,0,0-1.718-2.49,8.26,8.26,0,0,0-2.508-1.718,7.294,7.294,0,0,0-3-.631,7.5,7.5,0,0,0-3.051.631,7.977,7.977,0,0,0-2.508,1.718,8.494,8.494,0,0,0-1.7,2.49A7.179,7.179,0,0,0,317.14-482.855Z" transform="translate(-313.878 495.62)"/><path class="a" d="M390.427-471.809l-6.067-11.923h3.963a2.1,2.1,0,0,0,1.157-.315,2.661,2.661,0,0,0,.807-.807,3.46,3.46,0,0,0,.456-1.088,4.915,4.915,0,0,0,.14-1.122,3.933,3.933,0,0,0-.193-1.175,4.84,4.84,0,0,0-.526-1.14,2.913,2.913,0,0,0-.824-.859,1.956,1.956,0,0,0-1.122-.333h-9.854v18.762h-3.3v-21.883h13.607a4.8,4.8,0,0,1,2.174.509,5.745,5.745,0,0,1,1.789,1.4,6.887,6.887,0,0,1,1.227,2.122,7.5,7.5,0,0,1,.456,2.63,6.793,6.793,0,0,1-.368,2.227,7.16,7.16,0,0,1-1.017,1.946,6.018,6.018,0,0,1-1.526,1.455,4.92,4.92,0,0,1-1.893.754L394-471.809Z" transform="translate(-348.766 495.481)"/><path class="a" d="M429.73-471.809v-21.883h13.606a4.8,4.8,0,0,1,2.175.509,5.744,5.744,0,0,1,1.789,1.4,6.9,6.9,0,0,1,1.227,2.122,7.494,7.494,0,0,1,.456,2.63,5.171,5.171,0,0,1-.6,2.525,9.614,9.614,0,0,1-1.263,1.824,11.355,11.355,0,0,1,1.263,1.823,4.754,4.754,0,0,1,.6,2.384,7.494,7.494,0,0,1-.456,2.631,6.887,6.887,0,0,1-1.227,2.121,5.727,5.727,0,0,1-1.789,1.4,4.8,4.8,0,0,1-2.175.508Zm9.679-12.52h4.524a4.642,4.642,0,0,0,1.122-1.3,2.861,2.861,0,0,0,.456-1.438,4.027,4.027,0,0,0-.193-1.21,4.51,4.51,0,0,0-.526-1.122,3,3,0,0,0-.824-.842,1.9,1.9,0,0,0-1.087-.333h-9.854v15.641h9.924a1.871,1.871,0,0,0,1.1-.333,2.86,2.86,0,0,0,.789-.842,4.434,4.434,0,0,0,.491-1.122,4.4,4.4,0,0,0,.175-1.21,2.822,2.822,0,0,0-.456-1.455,4.979,4.979,0,0,0-1.157-1.315h-4.489Z" transform="translate(-379.933 495.481)"/><path class="a" d="M487.5-471.809v-7.645l-9.469-14.238h4.1l6.979,10.381,7.224-10.381H500.4l-9.539,14.063v7.82Z" transform="translate(-407.471 495.481)"/><path class="a" d="M537.1-493.692H556.21v3.121h-7.925v18.762h-3.332v-18.762H537.1Z" transform="translate(-441.149 495.481)"/><path class="a" d="M597.25-474.182l-8.1-16.342L582.662-477.3h9.4l2.069,3.121H577.4l11.748-23.671,11.923,23.671Z" transform="translate(-464.129 497.853)"/></g></g><g transform="translate(-14430.11 3881.067)"><path class="a" d="M248.412-465.287a15.877,15.877,0,0,0-.892-3.173,14.616,14.616,0,0,0-1.5-2.865.254.254,0,0,0-.283-.1.253.253,0,0,0-.169.316v0a19.643,19.643,0,0,1,.654,2.992c.067.5.109,1,.13,1.5.014.248.02.5.022.744l-.015.741a16.458,16.458,0,0,1-1.195,5.626,15.65,15.65,0,0,1-7.244,8.02,15.588,15.588,0,0,1-10.343,1.37,16.486,16.486,0,0,1-4.958-1.895c-.352-.208-.7-.432-1.034-.669-1.377.829-2.744,1.608-4.071,2.306a17.976,17.976,0,0,0,2.493,2.239,17.49,17.49,0,0,0,6.453,3.021,17.578,17.578,0,0,0,7.152.194,19.406,19.406,0,0,0,3.452-.952,19,19,0,0,0,3.191-1.6,18.164,18.164,0,0,0,5.113-4.816,17.765,17.765,0,0,0,2.846-6.28A17.053,17.053,0,0,0,248.412-465.287Z" transform="translate(-217.515 471.437)"/></g><path class="a" d="M211.4-469.193a13.956,13.956,0,0,1-2.222-4.5,15.16,15.16,0,0,1-.474-5.635,15.576,15.576,0,0,1,5.237-10.045,15.783,15.783,0,0,1,5.06-2.982,16.306,16.306,0,0,1,5.877-.943,16.375,16.375,0,0,1,10.939,4.686l0,0a.251.251,0,0,0,.345.005.251.251,0,0,0,.014-.354,17.266,17.266,0,0,0-5.059-3.825,16.873,16.873,0,0,0-2.993-1.161,18.793,18.793,0,0,0-3.175-.591,17.748,17.748,0,0,0-6.453.619,17.636,17.636,0,0,0-5.85,2.965,17.981,17.981,0,0,0-4.417,4.944,17.948,17.948,0,0,0-2.342,6.286,18.852,18.852,0,0,0,.111,6.779,19.708,19.708,0,0,0,.95,3.31,18.971,18.971,0,0,0,1.073,2.286Q209.582-468.144,211.4-469.193Z" transform="translate(-14640.852 4365.712)"/><path class="a" d="M238.8-501.761a.248.248,0,0,0-.234-.069,12.27,12.27,0,0,0-2.509.82,16.337,16.337,0,0,0-4,2.81l-1.635-.68-1.9,1.637-3.131-.839,1.953,1.994-1.3,1.268,2.358.4-.539.527.753.769a120.243,120.243,0,0,1-13.092,11.7c-13.909,10.849-24.784,15.426-26.159,13.81-.439-.516-.07-2.693,4.1-7.575.516-.6,1.071-1.225,1.656-1.856l.49-.42a19.641,19.641,0,0,1-.25-2.031,4.171,4.171,0,0,0-.836.674c-4.982,5.216-8.311,10.105-6.49,12.246.862,1.013,2.587,1.069,4.837.464,6.262-1.684,16.593-8.49,23.725-14.053a122.2,122.2,0,0,0,13.184-11.77l.93.95.539-.527.35,2.366,1.3-1.269,1.953,1.994-.774-3.148,1.676-1.87-.646-1.649a16.3,16.3,0,0,0,2.893-3.945,12.25,12.25,0,0,0,.873-2.491A.248.248,0,0,0,238.8-501.761Z" transform="translate(-14630.527 4369.837)"/></g></g></svg>